<?xml version="1.0" encoding="utf-8"?>
<!-- Generator: Adobe Illustrator 18.1.1, SVG Export Plug-In . SVG Version: 6.00 Build 0)  -->
<!DOCTYPE svg PUBLIC "-//W3C//DTD SVG 1.1//EN" "http://www.w3.org/Graphics/SVG/1.1/DTD/svg11.dtd">
<svg version="1.1" id="Layer_1" xmlns="http://www.w3.org/2000/svg" xmlns:xlink="http://www.w3.org/1999/xlink" x="0px" y="0px"
	 viewBox="0 0 32 32" enable-background="new 0 0 32 32" xml:space="preserve">
<g>
	<g>
		<g>
			<path fill="#FFFFFF" d="M6.8,22.6c0-1.1,0.9-2,2-2h6c1.1,0,2,0.9,2,2V29c0,1.1-0.9,2-2,2h-6c-1.1,0-2-0.9-2-2V22.6z"/>
		</g>
		<polygon fill="#FFFFFF" points="0.4,29.9 5.9,26.8 5.9,24.8 0.4,21.6 		"/>
	</g>
	<g>
		<polygon fill="#FFFFFF" points="24.9,1.6 20.9,5.7 17,5.7 17,12 20.9,12 24.9,16.1 		"/>
		<path fill="none" stroke="#FFFFFF" stroke-miterlimit="10" d="M25.8,6.5c0.7,0.5,1.2,1.4,1.2,2.3c0,1-0.5,1.8-1.2,2.3"/>
		<path fill="none" stroke="#FFFFFF" stroke-miterlimit="10" d="M27.3,4.2c1.5,1,2.6,2.7,2.6,4.7c0,1.9-1,3.6-2.5,4.6"/>
	</g>
	<g>
		<polyline fill="#FFFFFF" points="1.7,2.1 30.4,30.9 31.6,29.7 2.8,1 		"/>
	</g>
</g>
</svg>
