<?xml version="1.0" encoding="utf-8"?>
<!-- Generator: Adobe Illustrator 18.1.1, SVG Export Plug-In . SVG Version: 6.00 Build 0)  -->
<!DOCTYPE svg PUBLIC "-//W3C//DTD SVG 1.1//EN" "http://www.w3.org/Graphics/SVG/1.1/DTD/svg11.dtd">
<svg version="1.1" id="Layer_1" xmlns="http://www.w3.org/2000/svg" xmlns:xlink="http://www.w3.org/1999/xlink" x="0px" y="0px"
	 viewBox="0 0 32 32" enable-background="new 0 0 32 32" xml:space="preserve">
<g>
	<g>
		<g>
			<path fill="#FFFFFF" d="M15.5,0.1h0.9c1.9,0.1,3.7,0.9,5.1,2.2c1.4,1.3,2.2,3.2,2.3,5.1c0.1,1.6,0,3.3,0,4.9c1.2,0,2.5,0,3.7,0
				c0.8-0.1,1.6,0.7,1.5,1.5c0,5.4,0,10.8,0,16.2c0,0.3,0,0.7-0.1,1c-0.2,0.4-0.5,0.7-0.8,0.8c-0.3,0.1-0.7,0.1-1,0.1
				c-7.4,0-14.8,0-22.1,0c-0.3,0-0.6,0-0.8,0C3.6,31.8,3.2,31.5,3,31c-0.1-0.3-0.1-0.6-0.1-0.9V13.9c0-0.3,0.1-0.6,0.2-0.8
				c0.2-0.5,0.8-0.8,1.3-0.8c1.2,0,2.5,0,3.7,0c0-1.5,0-3.1,0-4.6c0-2.3,1.2-4.6,3-6C12.3,0.7,13.9,0.2,15.5,0.1z M12.7,4
				c-0.8,0.6-1.5,1.4-1.8,2.4c-0.4,1.2-0.3,2.5,0.3,3.6c0.6,1.2,1.6,2.1,2.9,2.5c1,0.4,2.2,0.5,3.2,0.2c-0.1,1-0.6,1.9-1,2.7
				c1.6-1,2.9-2.4,3.9-3.9c0.8-1.2,1.3-2.5,1.2-3.9c-0.1-1.2-0.7-2.4-1.6-3.3c-1-0.9-2.3-1.4-3.6-1.5C14.9,2.8,13.7,3.2,12.7,4z
				 M15.1,18c-0.6,0.3-1.1,0.8-1.4,1.4c-0.3,0.7-0.2,1.6,0.2,2.3c0.3,0.5,0.7,0.8,1.2,1c-0.5,0.2-1,0.5-1.4,0.9
				c-0.7,0.7-1.1,1.8-1,2.8c0,0.3,0,0.5,0.1,0.8c0.2,0.5,0.6,0.8,1.1,0.8c1.3,0,2.7,0,4,0c0.3,0,0.6,0,0.9-0.1
				c0.4-0.2,0.7-0.6,0.7-1.1c0-0.5,0-1-0.1-1.4c-0.3-1.2-1.2-2.2-2.4-2.6c0.6-0.2,1.1-0.7,1.4-1.2c0.3-0.6,0.4-1.3,0.2-1.9
				c-0.2-0.6-0.6-1.2-1.2-1.5C16.6,17.8,15.7,17.7,15.1,18z"/>
		</g>
	</g>
</g>
</svg>
