<?xml version="1.0" encoding="utf-8"?>
<!-- Generator: Adobe Illustrator 18.1.1, SVG Export Plug-In . SVG Version: 6.00 Build 0)  -->
<!DOCTYPE svg PUBLIC "-//W3C//DTD SVG 1.1//EN" "http://www.w3.org/Graphics/SVG/1.1/DTD/svg11.dtd">
<svg version="1.1" id="Layer_1" xmlns="http://www.w3.org/2000/svg" xmlns:xlink="http://www.w3.org/1999/xlink" x="0px" y="0px"
	 viewBox="0 0 16 16" enable-background="new 0 0 16 16" xml:space="preserve">
<g>
	<polyline fill="#FFFFFF" points="14.5,0.1 0.1,14.5 1.5,15.9 15.9,1.5 	"/>
</g>
<path fill="#FFFFFF" d="M12.3,7.9l-3.2,3.2C10.7,10.7,11.9,9.5,12.3,7.9z"/>
<path fill="#FFFFFF" d="M4.6,6.8h-1C3.6,8,4,9,4.7,9.8l0.7-0.7C4.9,8.5,4.6,7.7,4.6,6.8z"/>
<polygon fill="#FFFFFF" points="7.5,14.8 8.5,14.8 8.5,11.7 7.5,12.7 "/>
<path fill="#FFFFFF" d="M10.4,3.5c0-1.3-1.1-2.4-2.4-2.4c-1.3,0-2.4,1.1-2.4,2.4v3.3c0,0.6,0.2,1.1,0.6,1.5l4.2-4.2V3.5z"/>
</svg>
