<?xml version="1.0" encoding="utf-8"?>
<!-- Generator: Adobe Illustrator 18.1.1, SVG Export Plug-In . SVG Version: 6.00 Build 0)  -->
<!DOCTYPE svg PUBLIC "-//W3C//DTD SVG 1.1//EN" "http://www.w3.org/Graphics/SVG/1.1/DTD/svg11.dtd">
<svg version="1.1" id="Layer_1" xmlns="http://www.w3.org/2000/svg" xmlns:xlink="http://www.w3.org/1999/xlink" x="0px" y="0px"
	 viewBox="0 0 32 32" enable-background="new 0 0 32 32" xml:space="preserve">
<g>
	<g>
		<path fill="#FFFFFF" d="M18.2,17.8c0,0,1.1,3.1,5.7,3.1c5.6,0,6-3.1,6.3-4.8c0.2-1.1,0.8-2.3,1.2-2.4c0.4-0.1,0.4-1.5,0.4-1.5
			s0.2-0.9-1-1c0,0-5.6-0.6-10.5,0.6s-3.9,1-8.9-0.1c-4.8-1-10.3-0.5-10.3-0.5c-1.2,0.1-1,1-1,1s0,1.5,0.4,1.5
			C1,13.8,1.6,15,1.8,16.1c0.3,1.7,0.7,4.8,6.3,4.8c4.5,0,5.7-3.1,5.7-3.1s1-2.9,2.2-2.9S18.2,17.8,18.2,17.8z M11.5,19.1
			c-1.7,1.3-6,1.3-7.7-0.4c-0.9-0.9-1.4-5-0.6-6c0,0,0.4-0.7,3.4-0.7s6.1,1,6.6,1.8C13.6,14.7,13.2,17.8,11.5,19.1z M28.3,18.7
			c-1.7,1.7-6,1.8-7.7,0.4c-1.7-1.3-2.2-4.4-1.7-5.3c0.5-0.9,3.6-1.8,6.6-1.8s3.4,0.7,3.4,0.7C29.7,13.7,29.2,17.8,28.3,18.7z"/>
	</g>
</g>
</svg>
