<?xml version="1.0" encoding="utf-8"?>
<!-- Generator: Adobe Illustrator 18.1.1, SVG Export Plug-In . SVG Version: 6.00 Build 0)  -->
<!DOCTYPE svg PUBLIC "-//W3C//DTD SVG 1.1//EN" "http://www.w3.org/Graphics/SVG/1.1/DTD/svg11.dtd">
<svg version="1.1" id="Layer_1" xmlns="http://www.w3.org/2000/svg" xmlns:xlink="http://www.w3.org/1999/xlink" x="0px" y="0px"
	 viewBox="0 0 32 32" enable-background="new 0 0 32 32" xml:space="preserve">
<g>
	<g>
		<path fill="#FFFFFF" d="M30.9,10.3c0,0-5.6-0.6-10.5,0.6s-3.9,1-8.9-0.1c-4.8-1-10.3-0.5-10.3-0.5c-1.2,0.1-1,1-1,1s0,1.5,0.4,1.5
			c0.4,0.1,1.1,1.3,1.2,2.4C2.1,16.9,2.5,20,8.1,20c4.5,0,5.7-3.2,5.7-3.2s-1.1,3.8-2.2,5.3c0,0-0.5,0.8-0.7,1.5
			c-0.1,0.7-0.3,1.1,0.6,1.5s1.5,0.8,1.9,1.4s2,0.9,2.4,0.9c0.5,0,2.1-0.1,2.9-1.3c0.5-0.6,1.8-1.1,2.1-1.5c0.3-0.3,0.3-1.3-0.5-2.6
			c-1-1.6-2.2-5.3-2.2-5.3s1.1,3.2,5.7,3.2c5.6,0,6-3.1,6.3-4.8c0.2-1.1,0.8-2.3,1.2-2.4c0.4-0.1,0.4-1.5,0.4-1.5
			S32.1,10.4,30.9,10.3z M11.5,18.2c-1.7,1.3-6,1.3-7.7-0.4c-0.9-0.9-1.4-5-0.6-6c0,0,0.4-0.7,3.4-0.7s6.1,1,6.6,1.8
			C13.6,13.8,13.2,16.9,11.5,18.2z M28.3,17.8c-1.7,1.7-6,1.8-7.7,0.4s-2.2-4.4-1.7-5.3c0.5-0.9,3.6-1.8,6.6-1.8s3.4,0.7,3.4,0.7
			C29.7,12.8,29.2,16.9,28.3,17.8z"/>
		<path fill="#FFFFFF" d="M12.7,10.7c0,0-3.1-1.1-9.1-1l0.4-0.4l-1.5-1h1.8l-1.5-1l1-0.3L3.2,6.3l0.6,0.1c0,0-0.2-0.5-0.1-0.4
			s0.6,0.3,0.6,0.3l0-1.5l0.9,0.3l0.4-0.4L6.2,5l0.6-0.5l0,0.7l0.8-0.8l0.1,1.1l0.1-0.3l0.4,0.2l0.5-0.7l0.1,0.8l0.6-0.9l0,1.3
			l0.4-0.7l0.2,0.5l0.3-1.2l0.4,1.4l1-0.8l-0.1,0.6l0.4-0.1l-0.3,1l0.9-0.4L12.3,7l1-0.1l-0.6,0.6l0.5,0.1l-0.3,0.4l0.3,0.1
			c0,0-1,0.4-0.9,0.4c0.1,0,0.8,0.1,0.8,0.1s-0.6,0.3-0.5,0.3c0.1,0,0.6,0.3,0.6,0.3l-0.8,0.1l0.4,0.3l-0.4,0.3l0.6,0.2l-0.6,0.2
			L12.7,10.7z"/>
		<path fill="#FFFFFF" d="M19.6,10.7c0,0,3.1-1.1,9.1-1l-0.4-0.4l1.5-1H28l1.5-1l-1-0.3L29,6.3l-0.6,0.1c0,0,0.2-0.5,0.1-0.4
			s-0.6,0.3-0.6,0.3l0-1.5L27,5.1l-0.4-0.4L26.1,5l-0.6-0.5l0,0.7l-0.8-0.8l-0.1,1.1l-0.1-0.3l-0.4,0.2l-0.5-0.7l-0.1,0.8l-0.6-0.9
			l0,1.3l-0.4-0.7l-0.2,0.5l-0.3-1.2l-0.4,1.4l-1-0.8l0.1,0.6l-0.4-0.1l0.3,1l-0.9-0.4L19.9,7l-1-0.1l0.6,0.6L19,7.5l0.3,0.4
			l-0.3,0.1c0,0,1,0.4,0.9,0.4c-0.1,0-0.8,0.1-0.8,0.1s0.6,0.3,0.5,0.3c-0.1,0-0.6,0.3-0.6,0.3l0.8,0.1l-0.4,0.3l0.4,0.3l-0.6,0.2
			l0.6,0.2L19.6,10.7z"/>
	</g>
</g>
</svg>
