<?xml version="1.0" encoding="utf-8"?>
<!-- Generator: Adobe Illustrator 18.1.1, SVG Export Plug-In . SVG Version: 6.00 Build 0)  -->
<!DOCTYPE svg PUBLIC "-//W3C//DTD SVG 1.1//EN" "http://www.w3.org/Graphics/SVG/1.1/DTD/svg11.dtd">
<svg version="1.1" id="Layer_1" xmlns="http://www.w3.org/2000/svg" xmlns:xlink="http://www.w3.org/1999/xlink" x="0px" y="0px"
	 viewBox="0 0 15.7 15.7" enable-background="new 0 0 15.7 15.7" xml:space="preserve">
<rect x="1.6" y="9.5" transform="matrix(0.7071 0.7071 -0.7071 0.7071 9.7692 1.3443)" fill="#FFFFFF" width="3.2" height="6"/>
<g>
	<path fill="#FFFFFF" d="M9.5,2c2.3,0,4.2,1.9,4.2,4.2c0,2.3-1.9,4.2-4.2,4.2c-2.3,0-4.2-1.9-4.2-4.2C5.4,3.9,7.2,2,9.5,2 M9.5,0
		C6.1,0,3.4,2.8,3.4,6.2c0,3.4,2.8,6.2,6.2,6.2s6.2-2.8,6.2-6.2C15.7,2.8,12.9,0,9.5,0L9.5,0z"/>
</g>
</svg>
