<?xml version="1.0" encoding="utf-8"?>
<!-- Generator: Adobe Illustrator 18.1.1, SVG Export Plug-In . SVG Version: 6.00 Build 0)  -->
<!DOCTYPE svg PUBLIC "-//W3C//DTD SVG 1.1//EN" "http://www.w3.org/Graphics/SVG/1.1/DTD/svg11.dtd">
<svg version="1.1" id="Layer_1" xmlns="http://www.w3.org/2000/svg" xmlns:xlink="http://www.w3.org/1999/xlink" x="0px" y="0px"
	 viewBox="0 0 16 16" enable-background="new 0 0 16 16" xml:space="preserve">
<g>
	<polyline fill="#FFFFFF" points="14.5,0.2 0.1,14.6 1.5,16 15.9,1.6 	"/>
</g>
<polygon fill="#FFFFFF" points="9.1,14.8 9.1,11.2 7.3,13 "/>
<polygon fill="#FFFFFF" points="9.1,1.3 5.4,5.2 1.8,5.2 1.8,11 3.6,11 9.1,5.6 "/>
<path fill="#FFFFFF" d="M10.3,10.7c0.6-0.4,1.1-1.1,1.3-1.9L10,10.3L10.3,10.7z"/>
<path fill="#FFFFFF" d="M13.1,7.2c0.1,0.3,0.1,0.6,0.1,0.9c0,1.6-0.8,3-2.1,3.9l0.6,0.8c1.5-1,2.5-2.7,2.5-4.7
	c0-0.6-0.1-1.2-0.3-1.7L13.1,7.2z"/>
</svg>
