<?xml version="1.0" encoding="utf-8"?>
<!-- Generator: Adobe Illustrator 18.1.1, SVG Export Plug-In . SVG Version: 6.00 Build 0)  -->
<!DOCTYPE svg PUBLIC "-//W3C//DTD SVG 1.1//EN" "http://www.w3.org/Graphics/SVG/1.1/DTD/svg11.dtd">
<svg version="1.1" id="Layer_1" xmlns="http://www.w3.org/2000/svg" xmlns:xlink="http://www.w3.org/1999/xlink" x="0px" y="0px"
	 viewBox="0 0 16 16" enable-background="new 0 0 16 16" xml:space="preserve">
<g>
	<polygon fill="#FFFFFF" points="9.1,1.2 5.4,5.1 1.8,5.1 1.8,10.9 5.4,10.9 9.1,14.8 	"/>
	<g>
		<path fill="#FFFFFF" d="M9.7,6.3c0.6,0.4,0.9,1,0.9,1.7c0,0.7-0.4,1.4-0.9,1.7l0.6,0.8c0.8-0.6,1.4-1.5,1.4-2.6
			c0-1.1-0.5-2-1.4-2.6L9.7,6.3L9.7,6.3z"/>
		<path fill="#FFFFFF" d="M11,4.1c1.3,0.8,2.1,2.3,2.1,3.9c0,1.6-0.8,3-2.1,3.9l0.6,0.8c1.5-1,2.5-2.7,2.5-4.7c0-2-1-3.8-2.6-4.8
			L11,4.1L11,4.1z"/>
	</g>
</g>
</svg>
