<?xml version="1.0" encoding="utf-8"?>
<!-- Generator: Adobe Illustrator 18.1.1, SVG Export Plug-In . SVG Version: 6.00 Build 0)  -->
<!DOCTYPE svg PUBLIC "-//W3C//DTD SVG 1.1//EN" "http://www.w3.org/Graphics/SVG/1.1/DTD/svg11.dtd">
<svg version="1.1" id="Layer_1" xmlns="http://www.w3.org/2000/svg" xmlns:xlink="http://www.w3.org/1999/xlink" x="0px" y="0px"
	 viewBox="0 0 16 16" enable-background="new 0 0 16 16" xml:space="preserve">
<path fill="#252325" d="M8,0C6.1,0,4.1,1.3,4.1,3.9v1.9h-1C2,5.7,1.3,6.5,1.3,7.6v6.5c0,1.1,0.7,1.9,1.9,1.9l9.6,0
	c1.1,0,1.9-0.8,1.9-1.9V7.6c0-1.1-0.8-1.9-1.9-1.9h-0.9l0-1.9C11.9,1.3,9.9,0,8,0z M8,1.6c1.3,0,2.2,1,2.2,2.2C10.2,5,9.7,6.2,8,6.9
	c0.3-0.5,0.4-0.7,0.5-1.2C6.7,5.9,5.8,4.9,5.8,3.8S6.7,1.6,8,1.6z"/>
<path fill="#FFFFFF" d="M7.9,7.7c-1.8,0-3.3,1.5-3.3,3.3s1.5,3.3,3.3,3.3s3.3-1.5,3.3-3.3S9.8,7.7,7.9,7.7z M5.6,11
	c0-1.1,0.8-2,1.8-2.3v4.5C6.4,13.1,5.6,12.1,5.6,11z M8.4,13.3V8.7c1,0.2,1.8,1.2,1.8,2.3S9.5,13.1,8.4,13.3z"/>
</svg>
