<?xml version="1.0" encoding="utf-8"?>
<!-- Generator: Adobe Illustrator 18.1.1, SVG Export Plug-In . SVG Version: 6.00 Build 0)  -->
<!DOCTYPE svg PUBLIC "-//W3C//DTD SVG 1.1//EN" "http://www.w3.org/Graphics/SVG/1.1/DTD/svg11.dtd">
<svg version="1.1" id="Layer_1" xmlns="http://www.w3.org/2000/svg" xmlns:xlink="http://www.w3.org/1999/xlink" x="0px" y="0px"
	 viewBox="0 0 16 16" enable-background="new 0 0 16 16" xml:space="preserve">
<path fill="#252325" d="M8,0.1C6.1,0.1,4.1,1.4,4.1,4v1.9h-1C2,5.9,1.3,6.7,1.3,7.8v6.5c0,1.1,0.7,1.9,1.9,1.9l9.6,0
	c1.1,0,1.9-0.8,1.9-1.9V7.8c0-1.1-0.8-1.9-1.9-1.9h-0.9l0-1.9C11.9,1.4,9.9,0.1,8,0.1z M8,1.7c1.3,0,2.2,1,2.2,2.2
	C10.2,5.2,9.7,6.4,8,7c0.3-0.5,0.4-0.7,0.5-1.2C6.7,6,5.8,5.1,5.8,3.9S6.7,1.7,8,1.7z"/>
<path fill="#CDBE41" d="M7.9,7.8c-1.8,0-3.3,1.5-3.3,3.3c0,1.8,1.5,3.3,3.3,3.3s3.3-1.5,3.3-3.3C11.3,9.3,9.8,7.8,7.9,7.8z
	 M5.6,11.1c0-1.3,1.1-2.4,2.4-2.4s2.4,1.1,2.4,2.4H5.6z"/>
</svg>
